<svg width="25" height="24" viewBox="0 0 25 24" fill="none" xmlns="http://www.w3.org/2000/svg">
<g id="DotsThreeOutline">
<path id="Vector" d="M15.4253 12C15.4253 12.5192 15.2713 13.0267 14.9829 13.4584C14.6945 13.8901 14.2845 14.2265 13.8048 14.4252C13.3252 14.6239 12.7974 14.6758 12.2882 14.5746C11.779 14.4733 11.3113 14.2233 10.9441 13.8562C10.577 13.489 10.327 13.0213 10.2257 12.5121C10.1244 12.0029 10.1764 11.4751 10.3751 10.9955C10.5738 10.5158 10.9102 10.1058 11.3419 9.81739C11.7736 9.52895 12.2811 9.375 12.8003 9.375C13.4965 9.375 14.1642 9.65156 14.6565 10.1438C15.1487 10.6361 15.4253 11.3038 15.4253 12ZM5.30029 9.375C4.78112 9.375 4.2736 9.52895 3.84192 9.81739C3.41024 10.1058 3.07379 10.5158 2.87511 10.9955C2.67643 11.4751 2.62445 12.0029 2.72573 12.5121C2.82702 13.0213 3.07703 13.489 3.44414 13.8562C3.81125 14.2233 4.27898 14.4733 4.78818 14.5746C5.29738 14.6758 5.82518 14.6239 6.30484 14.4252C6.78449 14.2265 7.19446 13.8901 7.4829 13.4584C7.77134 13.0267 7.92529 12.5192 7.92529 12C7.92529 11.3038 7.64873 10.6361 7.15645 10.1438C6.66417 9.65156 5.99649 9.375 5.30029 9.375ZM20.3003 9.375C19.7811 9.375 19.2736 9.52895 18.8419 9.81739C18.4102 10.1058 18.0738 10.5158 17.8751 10.9955C17.6764 11.4751 17.6244 12.0029 17.7257 12.5121C17.827 13.0213 18.077 13.489 18.4441 13.8562C18.8113 14.2233 19.279 14.4733 19.7882 14.5746C20.2974 14.6758 20.8252 14.6239 21.3048 14.4252C21.7845 14.2265 22.1945 13.8901 22.4829 13.4584C22.7713 13.0267 22.9253 12.5192 22.9253 12C22.9253 11.6553 22.8574 11.3139 22.7255 10.9955C22.5936 10.677 22.4002 10.3876 22.1565 10.1438C21.9127 9.90009 21.6233 9.70673 21.3048 9.57482C20.9864 9.4429 20.645 9.375 20.3003 9.375Z" fill="#A1A1AA"/>
</g>
</svg>
