<svg width="25" height="24" viewBox="0 0 25 24" fill="none" xmlns="http://www.w3.org/2000/svg">
<g id="EnvelopeSimple">
<path id="Vector" d="M21.4004 4.5H3.40039C3.20148 4.5 3.01071 4.57902 2.87006 4.71967C2.72941 4.86032 2.65039 5.05109 2.65039 5.25V18C2.65039 18.3978 2.80843 18.7794 3.08973 19.0607C3.37103 19.342 3.75257 19.5 4.15039 19.5H20.6504C21.0482 19.5 21.4297 19.342 21.7111 19.0607C21.9924 18.7794 22.1504 18.3978 22.1504 18V5.25C22.1504 5.05109 22.0714 4.86032 21.9307 4.71967C21.7901 4.57902 21.5993 4.5 21.4004 4.5ZM20.6504 18H4.15039V6.95531L11.8932 14.0531C12.0316 14.1801 12.2126 14.2506 12.4004 14.2506C12.5882 14.2506 12.7692 14.1801 12.9076 14.0531L20.6504 6.95531V18Z" fill="#18181B"/>
</g>
</svg>
