<svg width="25" height="24" viewBox="0 0 25 24" fill="none" xmlns="http://www.w3.org/2000/svg">
<g id="House">
<path id="Vector" d="M21.2002 11.25V20.25C21.2002 20.449 21.1212 20.6397 20.9805 20.7804C20.8399 20.921 20.6491 21 20.4502 21H15.2002C15.0013 21 14.8105 20.921 14.6699 20.7804C14.5292 20.6397 14.4502 20.449 14.4502 20.25V15.375C14.4502 15.2756 14.4107 15.1802 14.3404 15.1099C14.27 15.0395 14.1747 15 14.0752 15H10.3252C10.2257 15 10.1304 15.0395 10.06 15.1099C9.9897 15.1802 9.9502 15.2756 9.9502 15.375V20.25C9.9502 20.449 9.87118 20.6397 9.73053 20.7804C9.58987 20.921 9.39911 21 9.2002 21H3.9502C3.75128 21 3.56052 20.921 3.41987 20.7804C3.27921 20.6397 3.2002 20.449 3.2002 20.25V11.25C3.20038 10.8523 3.35854 10.4709 3.63988 10.1897L11.1399 2.68972C11.4212 2.40863 11.8025 2.25073 12.2002 2.25073C12.5978 2.25073 12.9792 2.40863 13.2605 2.68972L20.7605 10.1897C21.0419 10.4709 21.2 10.8523 21.2002 11.25Z" fill="#18181B"/>
</g>
</svg>
