<svg width="25" height="24" viewBox="0 0 25 24" fill="none" xmlns="http://www.w3.org/2000/svg">
<g id="Phone">
<path id="Vector" d="M22.3389 16.4138C22.1717 17.6841 21.5478 18.8502 20.5838 19.6942C19.6197 20.5382 18.3814 21.0023 17.1001 21.0001C9.65636 21.0001 3.60011 14.9438 3.60011 7.50005C3.59781 6.21876 4.062 4.98045 4.90598 4.01639C5.74996 3.05234 6.91602 2.42847 8.18636 2.2613C8.50759 2.22208 8.8329 2.2878 9.11372 2.44865C9.39454 2.60951 9.6158 2.85687 9.74448 3.1538L11.7245 7.57412V7.58537C11.823 7.81267 11.8637 8.06083 11.8429 8.30769C11.8221 8.55455 11.7405 8.79242 11.6054 9.00005C11.5885 9.02537 11.5707 9.0488 11.552 9.07224L9.60011 11.386C10.3023 12.8129 11.7948 14.2922 13.2404 14.9963L15.5223 13.0547C15.5447 13.0359 15.5682 13.0184 15.5926 13.0022C15.8001 12.8639 16.0388 12.7794 16.2871 12.7565C16.5354 12.7336 16.7855 12.7729 17.0148 12.871L17.027 12.8766L21.4435 14.8557C21.741 14.9839 21.989 15.205 22.1504 15.4858C22.3117 15.7667 22.3779 16.0922 22.3389 16.4138Z" fill="#A1A1AA"/>
</g>
</svg>
